<svg xmlns="http://www.w3.org/2000/svg" version="1.1"><style type="text/css" media="screen"><![CDATA[#scheme-layer-labels text, #highlight-layer-labels text{font-family:arial,sans-serif;font-size:13px;} #highlight-layer-links path, #scheme-layer-links path{stroke-width:8;fill:none;} #highlight-layer-stations circle, #scheme-layer-stations circle{stroke:#000;stroke-width:1;stroke-opacity:0.5;} #highlight-layer-labels rect, #scheme-layer-labels rect{fill:#fff;opacity:0.7;} #highlight-layer-stations circle.transfer-station, #scheme-layer-stations circle.transfer-station{stroke:#fff;} #highlight-layer-transfers path, #scheme-layer-transfers path{stroke:#000;stroke-width:2;fill:rgba(255,255,255,0.6);}]]></style><title>Scheme of Minsk's subway</title><desc><name>Minsk</name><width>420</width><height>345</height><locale>tr</locale></desc><metadata><![CDATA[{"name":"Minsk","locale":"tr","id":"13","width":420,"height":345,"stations":{"1":{"name":"Uruche","lineId":1,"linkIds":[0],"labelId":1,"isTransferStation":false},"2":{"name":"Borisovskiy Trakt","lineId":1,"linkIds":[0,1],"labelId":2,"isTransferStation":false},"3":{"name":"Vostok","lineId":1,"linkIds":[1,2],"labelId":3,"isTransferStation":false},"4":{"name":"Moskovskaya","lineId":1,"linkIds":[2,3],"labelId":4,"isTransferStation":false},"5":{"name":"Park Chelyuskintsev","lineId":1,"linkIds":[3,4],"labelId":5,"isTransferStation":false},"6":{"name":"Akademiya Nauk","lineId":1,"linkIds":[4,5],"labelId":6,"isTransferStation":false},"7":{"name":"Ploshchad Yakuba Kolasa","lineId":1,"linkIds":[5,6],"labelId":7,"isTransferStation":false},"8":{"name":"Ploshchad Pobedy","lineId":1,"linkIds":[6,7],"labelId":8,"isTransferStation":false},"9":{"name":"Oktyabrskaya","lineId":1,"linkIds":[7,8,9],"labelId":9,"isTransferStation":true},"10":{"name":"Ploshchad Lenina","lineId":1,"linkIds":[9,10],"labelId":10,"isTransferStation":false},"11":{"name":"Institut Kultury","lineId":1,"linkIds":[10,11],"labelId":11,"isTransferStation":false},"12":{"name":"Kamennaya Gorka","lineId":2,"linkIds":[14],"labelId":12,"isTransferStation":false},"13":{"name":"Kuntsevshchina","lineId":2,"linkIds":[14,15],"labelId":13,"isTransferStation":false},"14":{"name":"Sportivnaya","lineId":2,"linkIds":[15,16],"labelId":14,"isTransferStation":false},"15":{"name":"Pushkinskaya","lineId":2,"linkIds":[16,17],"labelId":15,"isTransferStation":false},"16":{"name":"Molodezhnaya","lineId":2,"linkIds":[17,18],"labelId":16,"isTransferStation":false},"17":{"name":"Frunzenskaya","lineId":2,"linkIds":[18,19],"labelId":17,"isTransferStation":false},"18":{"name":"Nemiga","lineId":2,"linkIds":[19,20],"labelId":18,"isTransferStation":false},"19":{"name":"Kupalovskaya","lineId":2,"linkIds":[8,20,21],"labelId":19,"isTransferStation":true},"20":{"name":"Pervomayskaya","lineId":2,"linkIds":[21,22],"labelId":20,"isTransferStation":false},"21":{"name":"Proletarskaya","lineId":2,"linkIds":[22,23],"labelId":21,"isTransferStation":false},"22":{"name":"Traktornyy Zavod","lineId":2,"linkIds":[23,24],"labelId":22,"isTransferStation":false},"23":{"name":"Partizanskaya","lineId":2,"linkIds":[24,25],"labelId":23,"isTransferStation":false},"24":{"name":"Avtozavodskaya","lineId":2,"linkIds":[25,26],"labelId":24,"isTransferStation":false},"25":{"name":"Mogilevskaya","lineId":2,"linkIds":[26],"labelId":25,"isTransferStation":false},"26":{"name":"Grushevka","lineId":1,"linkIds":[11,12],"labelId":26,"isTransferStation":false},"27":{"name":"Mikhalovo","lineId":1,"linkIds":[12,13],"labelId":27,"isTransferStation":false},"28":{"name":"Petrovshchina","lineId":1,"linkIds":[13],"labelId":28,"isTransferStation":false}},"stationCount":28,"lines":{"1":{"name":"Moskovskaya","color":"#0252A2","stationIds":[1,2,3,4,5,6,7,8,9,10,11,26,27,28],"linkIds":[0,1,2,3,4,5,6,7,8,9,10,11,12,13],"transferStationIds":[9]},"2":{"name":"Avtozavodskaya","color":"#EF1E25","stationIds":[12,13,14,15,16,17,18,19,20,21,22,23,24,25],"linkIds":[8,14,15,16,17,18,19,20,21,22,23,24,25,26],"transferStationIds":[19]}},"lineCount":2,"links":{"0":{"type":"link","fromStationId":1,"toStationId":2,"weightTime":180,"weightTransfer":0},"1":{"type":"link","fromStationId":2,"toStationId":3,"weightTime":120,"weightTransfer":0},"2":{"type":"link","fromStationId":3,"toStationId":4,"weightTime":120,"weightTransfer":0},"3":{"type":"link","fromStationId":4,"toStationId":5,"weightTime":100,"weightTransfer":0},"4":{"type":"link","fromStationId":5,"toStationId":6,"weightTime":120,"weightTransfer":0},"5":{"type":"link","fromStationId":6,"toStationId":7,"weightTime":80,"weightTransfer":0},"6":{"type":"link","fromStationId":7,"toStationId":8,"weightTime":120,"weightTransfer":0},"7":{"type":"link","fromStationId":8,"toStationId":9,"weightTime":120,"weightTransfer":0},"8":{"type":"transfer","fromStationId":9,"toStationId":19,"weightTime":180,"weightTransfer":1,"transferId":0},"9":{"type":"link","fromStationId":9,"toStationId":10,"weightTime":120,"weightTransfer":0},"10":{"type":"link","fromStationId":10,"toStationId":11,"weightTime":120,"weightTransfer":0},"11":{"type":"link","fromStationId":11,"toStationId":26,"weightTime":160,"weightTransfer":0},"12":{"type":"link","fromStationId":26,"toStationId":27,"weightTime":130,"weightTransfer":0},"13":{"type":"link","fromStationId":27,"toStationId":28,"weightTime":110,"weightTransfer":0},"14":{"type":"link","fromStationId":12,"toStationId":13,"weightTime":120,"weightTransfer":0},"15":{"type":"link","fromStationId":13,"toStationId":14,"weightTime":145,"weightTransfer":0},"16":{"type":"link","fromStationId":14,"toStationId":15,"weightTime":120,"weightTransfer":0},"17":{"type":"link","fromStationId":15,"toStationId":16,"weightTime":150,"weightTransfer":0},"18":{"type":"link","fromStationId":16,"toStationId":17,"weightTime":140,"weightTransfer":0},"19":{"type":"link","fromStationId":17,"toStationId":18,"weightTime":120,"weightTransfer":0},"20":{"type":"link","fromStationId":18,"toStationId":19,"weightTime":85,"weightTransfer":0},"21":{"type":"link","fromStationId":19,"toStationId":20,"weightTime":120,"weightTransfer":0},"22":{"type":"link","fromStationId":20,"toStationId":21,"weightTime":120,"weightTransfer":0},"23":{"type":"link","fromStationId":21,"toStationId":22,"weightTime":150,"weightTransfer":0},"24":{"type":"link","fromStationId":22,"toStationId":23,"weightTime":150,"weightTransfer":0},"25":{"type":"link","fromStationId":23,"toStationId":24,"weightTime":180,"weightTransfer":0},"26":{"type":"link","fromStationId":24,"toStationId":25,"weightTime":150,"weightTransfer":0}},"linkCount":27,"transfers":{"0":{"stationIds":[19,9],"linkIds":[8]}},"transferCount":1,"labels":{"1":{"stationIds":["1"]},"2":{"stationIds":["2"]},"3":{"stationIds":["3"]},"4":{"stationIds":["4"]},"5":{"stationIds":["5"]},"6":{"stationIds":["6"]},"7":{"stationIds":["7"]},"8":{"stationIds":["8"]},"9":{"stationIds":["9"]},"10":{"stationIds":["10"]},"11":{"stationIds":["11"]},"12":{"stationIds":["12"]},"13":{"stationIds":["13"]},"14":{"stationIds":["14"]},"15":{"stationIds":["15"]},"16":{"stationIds":["16"]},"17":{"stationIds":["17"]},"18":{"stationIds":["18"]},"19":{"stationIds":["19"]},"20":{"stationIds":["20"]},"21":{"stationIds":["21"]},"22":{"stationIds":["22"]},"23":{"stationIds":["23"]},"24":{"stationIds":["24"]},"25":{"stationIds":["25"]},"26":{"stationIds":["26"]},"27":{"stationIds":["27"]},"28":{"stationIds":["28"]}},"labelCount":28,"lineGraphMaxDepth":1,"lineGraphDepthTolerance":0,"isDoubleTransferProne":false}]]></metadata><g id="transform-wrapper" transform="scale(1 1)"><g id="scheme-layer"><g id="scheme-layer-background"><rect x="0" y="0" width="420" height="345" fill="#fff" stroke="none"/></g><g id="scheme-layer-links"><path id="link-0" d="M295,20L285,40" stroke="#0252A2"/><path id="link-1" d="M285,40L275,60" stroke="#0252A2"/><path id="link-2" d="M275,60L265,80" stroke="#0252A2"/><path id="link-3" d="M265,80L255,100" stroke="#0252A2"/><path id="link-4" d="M255,100L245,120" stroke="#0252A2"/><path id="link-5" d="M245,120L235,140" stroke="#0252A2"/><path id="link-6" d="M235,140L225,160" stroke="#0252A2"/><path id="link-7" d="M225,160L210,190" stroke="#0252A2"/><path id="link-9" d="M210,190L192,226" stroke="#0252A2"/><path id="link-10" d="M192,226L182,246" stroke="#0252A2"/><path id="link-11" d="M182,246L172,266" stroke="#0252A2"/><path id="link-12" d="M172,266L162,286" stroke="#0252A2"/><path id="link-13" d="M162,286L152,306" stroke="#0252A2"/><path id="link-14" d="M120,40L130,60" stroke="#EF1E25"/><path id="link-15" d="M130,60L140,80" stroke="#EF1E25"/><path id="link-16" d="M140,80L150,100" stroke="#EF1E25"/><path id="link-17" d="M150,100L160,120" stroke="#EF1E25"/><path id="link-18" d="M160,120L170,140" stroke="#EF1E25"/><path id="link-19" d="M170,140L180,160" stroke="#EF1E25"/><path id="link-20" d="M180,160L195,190" stroke="#EF1E25"/><path id="link-21" d="M195,190L213,226" stroke="#EF1E25"/><path id="link-22" d="M213,226L223,246" stroke="#EF1E25"/><path id="link-23" d="M223,246L233,266" stroke="#EF1E25"/><path id="link-24" d="M233,266L243,286" stroke="#EF1E25"/><path id="link-25" d="M243,286L253,306" stroke="#EF1E25"/><path id="link-26" d="M253,306L263,326" stroke="#EF1E25"/></g><g id="scheme-layer-transfers"><path id="transfer-0" d="M195,197L210,197A7,7 0 0 0 210 183L195,183A7,7 0 0 0 195 197"/></g><g id="scheme-layer-stations"><circle id="station-1" cx="295" cy="20" r="5" fill="#0252A2"/><circle id="station-2" cx="285" cy="40" r="5" fill="#0252A2"/><circle id="station-3" cx="275" cy="60" r="5" fill="#0252A2"/><circle id="station-4" cx="265" cy="80" r="5" fill="#0252A2"/><circle id="station-5" cx="255" cy="100" r="5" fill="#0252A2"/><circle id="station-6" cx="245" cy="120" r="5" fill="#0252A2"/><circle id="station-7" cx="235" cy="140" r="5" fill="#0252A2"/><circle id="station-8" cx="225" cy="160" r="5" fill="#0252A2"/><circle id="station-9" class="transfer-station" cx="210" cy="190" r="5" fill="#0252A2"/><circle id="station-10" cx="192" cy="226" r="5" fill="#0252A2"/><circle id="station-11" cx="182" cy="246" r="5" fill="#0252A2"/><circle id="station-26" cx="172" cy="266" r="5" fill="#0252A2"/><circle id="station-27" cx="162" cy="286" r="5" fill="#0252A2"/><circle id="station-28" cx="152" cy="306" r="5" fill="#0252A2"/><circle id="station-12" cx="120" cy="40" r="5" fill="#EF1E25"/><circle id="station-13" cx="130" cy="60" r="5" fill="#EF1E25"/><circle id="station-14" cx="140" cy="80" r="5" fill="#EF1E25"/><circle id="station-15" cx="150" cy="100" r="5" fill="#EF1E25"/><circle id="station-16" cx="160" cy="120" r="5" fill="#EF1E25"/><circle id="station-17" cx="170" cy="140" r="5" fill="#EF1E25"/><circle id="station-18" cx="180" cy="160" r="5" fill="#EF1E25"/><circle id="station-19" class="transfer-station" cx="195" cy="190" r="5" fill="#EF1E25"/><circle id="station-20" cx="213" cy="226" r="5" fill="#EF1E25"/><circle id="station-21" cx="223" cy="246" r="5" fill="#EF1E25"/><circle id="station-22" cx="233" cy="266" r="5" fill="#EF1E25"/><circle id="station-23" cx="243" cy="286" r="5" fill="#EF1E25"/><circle id="station-24" cx="253" cy="306" r="5" fill="#EF1E25"/><circle id="station-25" cx="263" cy="326" r="5" fill="#EF1E25"/></g><g id="scheme-layer-labels"><g id="label-1"><rect x="303" y="10" width="45" height="16" rx="3" ry="3"/><text x="304" y="23" text-anchor="start">Uruche</text></g><g id="label-2"><rect x="293" y="30" width="116" height="16" rx="3" ry="3"/><text x="294" y="43" text-anchor="start">Borisovskiy Trakt</text></g><g id="label-3"><rect x="283" y="50" width="44" height="16" rx="3" ry="3"/><text x="284" y="63" text-anchor="start">Vostok</text></g><g id="label-4"><rect x="273" y="70" width="74" height="16" rx="3" ry="3"/><text x="274" y="83" text-anchor="start">Moskovskaya</text></g><g id="label-5"><rect x="263" y="90" width="117" height="16" rx="3" ry="3"/><text x="264" y="103" text-anchor="start">Park Chelyuskintsev</text></g><g id="label-6"><rect x="253" y="110" width="93" height="16" rx="3" ry="3"/><text x="254" y="123" text-anchor="start">Akademiya Nauk</text></g><g id="label-7"><rect x="243" y="130" width="147" height="16" rx="3" ry="3"/><text x="244" y="143" text-anchor="start">Ploshchad Yakuba Kolasa</text></g><g id="label-8"><rect x="233" y="150" width="110" height="16" rx="3" ry="3"/><text x="234" y="163" text-anchor="start">Ploshchad Pobedy</text></g><g id="label-9"><rect x="218" y="180" width="79" height="16" rx="3" ry="3"/><text x="219" y="193" text-anchor="start">Oktyabrskaya</text></g><g id="label-10"><rect x="77" y="216" width="107" height="16" rx="3" ry="3"/><text x="183" y="229" text-anchor="end">Ploshchad Lenina</text></g><g id="label-11"><rect x="56" y="236" width="118" height="16" rx="3" ry="3"/><text x="173" y="249" text-anchor="end">Institut Kultury</text></g><g id="label-26"><rect x="104" y="256" width="60" height="16" rx="3" ry="3"/><text x="163" y="269" text-anchor="end">Grushevka</text></g><g id="label-27"><rect x="91" y="276" width="63" height="16" rx="3" ry="3"/><text x="153" y="289" text-anchor="end">Mikhalovo</text></g><g id="label-28"><rect x="67" y="296" width="77" height="16" rx="3" ry="3"/><text x="143" y="309" text-anchor="end">Petrovshchina</text></g><g id="label-12"><rect x="15" y="30" width="97" height="16" rx="3" ry="3"/><text x="111" y="43" text-anchor="end">Kamennaya Gorka</text></g><g id="label-13"><rect x="45" y="50" width="77" height="16" rx="3" ry="3"/><text x="121" y="63" text-anchor="end">Kuntsevshchina</text></g><g id="label-14"><rect x="59" y="70" width="73" height="16" rx="3" ry="3"/><text x="131" y="83" text-anchor="end">Sportivnaya</text></g><g id="label-15"><rect x="67" y="90" width="75" height="16" rx="3" ry="3"/><text x="141" y="103" text-anchor="end">Pushkinskaya</text></g><g id="label-16"><rect x="72" y="110" width="80" height="16" rx="3" ry="3"/><text x="151" y="123" text-anchor="end">Molodezhnaya</text></g><g id="label-17"><rect x="82" y="130" width="80" height="16" rx="3" ry="3"/><text x="161" y="143" text-anchor="end">Frunzenskaya</text></g><g id="label-18"><rect x="126" y="150" width="46" height="16" rx="3" ry="3"/><text x="171" y="163" text-anchor="end">Nemiga</text></g><g id="label-19"><rect x="107" y="180" width="80" height="16" rx="3" ry="3"/><text x="186" y="193" text-anchor="end">Kupalovskaya</text></g><g id="label-20"><rect x="221" y="216" width="89" height="16" rx="3" ry="3"/><text x="222" y="229" text-anchor="start">Pervomayskaya</text></g><g id="label-21"><rect x="231" y="236" width="87" height="16" rx="3" ry="3"/><text x="232" y="249" text-anchor="start">Proletarskaya</text></g><g id="label-22"><rect x="241" y="256" width="112" height="16" rx="3" ry="3"/><text x="242" y="269" text-anchor="start">Traktornyy Zavod</text></g><g id="label-23"><rect x="251" y="276" width="85" height="16" rx="3" ry="3"/><text x="252" y="289" text-anchor="start">Partizanskaya</text></g><g id="label-24"><rect x="261" y="296" width="93" height="16" rx="3" ry="3"/><text x="262" y="309" text-anchor="start">Avtozavodskaya</text></g><g id="label-25"><rect x="271" y="316" width="81" height="16" rx="3" ry="3"/><text x="272" y="329" text-anchor="start">Mogilevskaya</text></g></g></g><g id="highlight-layer"><g id="highlight-layer-links"/><g id="highlight-layer-transfers"/><g id="highlight-layer-stations"/><g id="highlight-layer-labels"/></g></g></svg>