<svg xmlns="http://www.w3.org/2000/svg" version="1.1"><style type="text/css" media="screen"><![CDATA[#scheme-layer-labels text, #highlight-layer-labels text{font-family:arial,sans-serif;font-size:13px;} #highlight-layer-links path, #scheme-layer-links path{stroke-width:8;fill:none;} #highlight-layer-stations circle, #scheme-layer-stations circle{stroke:#000;stroke-width:1;stroke-opacity:0.5;} #highlight-layer-labels rect, #scheme-layer-labels rect{fill:#fff;opacity:0.7;} #highlight-layer-stations circle.transfer-station, #scheme-layer-stations circle.transfer-station{stroke:#fff;} #highlight-layer-transfers path, #scheme-layer-transfers path{stroke:#000;stroke-width:2;fill:rgba(255,255,255,0.6);}]]></style><title>Scheme of Kharkiv's subway</title><desc><name>Kharkiv</name><width>530</width><height>430</height><locale>be</locale></desc><metadata><![CDATA[{"name":"Kharkiv","locale":"be","id":"9","width":530,"height":430,"stations":{"1":{"name":"Холодная Гора","lineId":1,"linkIds":[0],"labelId":1,"isTransferStation":false},"2":{"name":"Южный вокзал","lineId":1,"linkIds":[0,1],"labelId":2,"isTransferStation":false},"3":{"name":"Центральный рынок","lineId":1,"linkIds":[1,2],"labelId":3,"isTransferStation":false},"4":{"name":"Советская","lineId":1,"linkIds":[2,3,4],"labelId":4,"isTransferStation":true},"5":{"name":"Проспект Гагарина","lineId":1,"linkIds":[3,5],"labelId":5,"isTransferStation":false},"6":{"name":"Спортивная","lineId":1,"linkIds":[5,6,7],"labelId":6,"isTransferStation":true},"7":{"name":"улица Малышева","lineId":1,"linkIds":[7,8],"labelId":7,"isTransferStation":false},"8":{"name":"Московский проспект","lineId":1,"linkIds":[8,9],"labelId":8,"isTransferStation":false},"9":{"name":"проспект Маршала Жукова","lineId":1,"linkIds":[9,10],"labelId":9,"isTransferStation":false},"10":{"name":"Советской Армии","lineId":1,"linkIds":[10,11],"labelId":10,"isTransferStation":false},"11":{"name":"имени А.С. Масельского","lineId":1,"linkIds":[11,12],"labelId":11,"isTransferStation":false},"12":{"name":"Тракторный завод","lineId":1,"linkIds":[12,13],"labelId":12,"isTransferStation":false},"13":{"name":"Пролетарская","lineId":1,"linkIds":[13],"labelId":13,"isTransferStation":false},"14":{"name":"Героев Труда","lineId":2,"linkIds":[14],"labelId":14,"isTransferStation":false},"15":{"name":"Студенческая","lineId":2,"linkIds":[14,15],"labelId":15,"isTransferStation":false},"16":{"name":"Академика Павлова","lineId":2,"linkIds":[15,16],"labelId":16,"isTransferStation":false},"17":{"name":"Академика Барабашова","lineId":2,"linkIds":[16,17],"labelId":17,"isTransferStation":false},"18":{"name":"Киевская","lineId":2,"linkIds":[17,18],"labelId":18,"isTransferStation":false},"19":{"name":"Пушкинская","lineId":2,"linkIds":[18,19],"labelId":19,"isTransferStation":false},"20":{"name":"Университет","lineId":2,"linkIds":[19,20,21],"labelId":20,"isTransferStation":true},"21":{"name":"Исторический музей","lineId":2,"linkIds":[4,21],"labelId":21,"isTransferStation":true},"22":{"name":"23 августа","lineId":3,"linkIds":[22,23],"labelId":22,"isTransferStation":false},"23":{"name":"Ботанический сад","lineId":3,"linkIds":[23,24],"labelId":23,"isTransferStation":false},"24":{"name":"Научная","lineId":3,"linkIds":[24,25],"labelId":24,"isTransferStation":false},"25":{"name":"Госпром","lineId":3,"linkIds":[20,25,26],"labelId":25,"isTransferStation":true},"26":{"name":"Архитектора Бекетова","lineId":3,"linkIds":[26,27],"labelId":26,"isTransferStation":false},"27":{"name":"Площадь Восстания","lineId":3,"linkIds":[27,28],"labelId":27,"isTransferStation":false},"28":{"name":"Метростроителей имени Г.И. Ващенко","lineId":3,"linkIds":[6,28],"labelId":28,"isTransferStation":true},"29":{"name":"Алексеевская","lineId":3,"linkIds":[22],"labelId":29,"isTransferStation":false}},"stationCount":29,"lines":{"1":{"name":"Холодногорско-Заводская","color":"#EF1E25","stationIds":[1,2,3,4,5,6,7,8,9,10,11,12,13],"linkIds":[0,1,2,3,4,5,6,7,8,9,10,11,12,13],"transferStationIds":[4,6]},"2":{"name":"Салтовская","color":"#0252A2","stationIds":[14,15,16,17,18,19,20,21],"linkIds":[4,14,15,16,17,18,19,20,21],"transferStationIds":[21,20]},"3":{"name":"Алексеевская","color":"#029A55","stationIds":[22,23,24,25,26,27,28,29],"linkIds":[6,20,22,23,24,25,26,27,28],"transferStationIds":[28,25]}},"lineCount":3,"links":{"0":{"type":"link","fromStationId":1,"toStationId":2,"weightTime":180,"weightTransfer":0},"1":{"type":"link","fromStationId":2,"toStationId":3,"weightTime":120,"weightTransfer":0},"2":{"type":"link","fromStationId":3,"toStationId":4,"weightTime":60,"weightTransfer":0},"3":{"type":"link","fromStationId":4,"toStationId":5,"weightTime":120,"weightTransfer":0},"4":{"type":"transfer","fromStationId":4,"toStationId":21,"weightTime":100,"weightTransfer":1,"transferId":0},"5":{"type":"link","fromStationId":5,"toStationId":6,"weightTime":120,"weightTransfer":0},"6":{"type":"transfer","fromStationId":6,"toStationId":28,"weightTime":150,"weightTransfer":1,"transferId":2},"7":{"type":"link","fromStationId":6,"toStationId":7,"weightTime":120,"weightTransfer":0},"8":{"type":"link","fromStationId":7,"toStationId":8,"weightTime":120,"weightTransfer":0},"9":{"type":"link","fromStationId":8,"toStationId":9,"weightTime":120,"weightTransfer":0},"10":{"type":"link","fromStationId":9,"toStationId":10,"weightTime":180,"weightTransfer":0},"11":{"type":"link","fromStationId":10,"toStationId":11,"weightTime":120,"weightTransfer":0},"12":{"type":"link","fromStationId":11,"toStationId":12,"weightTime":120,"weightTransfer":0},"13":{"type":"link","fromStationId":12,"toStationId":13,"weightTime":120,"weightTransfer":0},"14":{"type":"link","fromStationId":14,"toStationId":15,"weightTime":120,"weightTransfer":0},"15":{"type":"link","fromStationId":15,"toStationId":16,"weightTime":120,"weightTransfer":0},"16":{"type":"link","fromStationId":16,"toStationId":17,"weightTime":120,"weightTransfer":0},"17":{"type":"link","fromStationId":17,"toStationId":18,"weightTime":180,"weightTransfer":0},"18":{"type":"link","fromStationId":18,"toStationId":19,"weightTime":120,"weightTransfer":0},"19":{"type":"link","fromStationId":19,"toStationId":20,"weightTime":120,"weightTransfer":0},"20":{"type":"transfer","fromStationId":20,"toStationId":25,"weightTime":200,"weightTransfer":1,"transferId":1},"21":{"type":"link","fromStationId":20,"toStationId":21,"weightTime":120,"weightTransfer":0},"22":{"type":"link","fromStationId":29,"toStationId":22,"weightTime":100,"weightTransfer":0},"23":{"type":"link","fromStationId":22,"toStationId":23,"weightTime":120,"weightTransfer":0},"24":{"type":"link","fromStationId":23,"toStationId":24,"weightTime":120,"weightTransfer":0},"25":{"type":"link","fromStationId":24,"toStationId":25,"weightTime":120,"weightTransfer":0},"26":{"type":"link","fromStationId":25,"toStationId":26,"weightTime":60,"weightTransfer":0},"27":{"type":"link","fromStationId":26,"toStationId":27,"weightTime":180,"weightTransfer":0},"28":{"type":"link","fromStationId":27,"toStationId":28,"weightTime":120,"weightTransfer":0}},"linkCount":29,"transfers":{"0":{"stationIds":[21,4],"linkIds":[4]},"1":{"stationIds":[20,25],"linkIds":[20]},"2":{"stationIds":[28,6],"linkIds":[6]}},"transferCount":3,"labels":{"1":{"stationIds":["1"]},"2":{"stationIds":["2"]},"3":{"stationIds":["3"]},"4":{"stationIds":["4"]},"5":{"stationIds":["5"]},"6":{"stationIds":["6"]},"7":{"stationIds":["7"]},"8":{"stationIds":["8"]},"9":{"stationIds":["9"]},"10":{"stationIds":["10"]},"11":{"stationIds":["11"]},"12":{"stationIds":["12"]},"13":{"stationIds":["13"]},"14":{"stationIds":["14"]},"15":{"stationIds":["15"]},"16":{"stationIds":["16"]},"17":{"stationIds":["17"]},"18":{"stationIds":["18"]},"19":{"stationIds":["19"]},"20":{"stationIds":["20"]},"21":{"stationIds":["21"]},"22":{"stationIds":["22"]},"23":{"stationIds":["23"]},"24":{"stationIds":["24"]},"25":{"stationIds":["25"]},"26":{"stationIds":["26"]},"27":{"stationIds":["27"]},"28":{"stationIds":["28"]},"29":{"stationIds":["29"]}},"labelCount":29,"lineGraphMaxDepth":1,"lineGraphDepthTolerance":1,"isDoubleTransferProne":false}]]></metadata><g id="transform-wrapper" transform="scale(1 1)"><g id="scheme-layer"><g id="scheme-layer-background"><rect x="0" y="0" width="530" height="430" fill="#fff" stroke="none"/></g><g id="scheme-layer-links"><path id="link-0" d="M100,300L120,280" stroke="#EF1E25"/><path id="link-1" d="M120,280L140,260" stroke="#EF1E25"/><path id="link-2" d="M140,260L190,210" stroke="#EF1E25"/><path id="link-3" d="M190,210L215,235" stroke="#EF1E25"/><path id="link-5" d="M215,235L240,260" stroke="#EF1E25"/><path id="link-7" d="M240,260L270,290" stroke="#EF1E25"/><path id="link-8" d="M270,290L290,310" stroke="#EF1E25"/><path id="link-9" d="M290,310L310,330" stroke="#EF1E25"/><path id="link-10" d="M310,330L330,350" stroke="#EF1E25"/><path id="link-11" d="M330,350L350,370" stroke="#EF1E25"/><path id="link-12" d="M350,370L370,390" stroke="#EF1E25"/><path id="link-13" d="M370,390L390,410" stroke="#EF1E25"/><path id="link-14" d="M370,15L350,35" stroke="#0252A2"/><path id="link-15" d="M350,35L330,55" stroke="#0252A2"/><path id="link-16" d="M330,55L310,75" stroke="#0252A2"/><path id="link-17" d="M310,75L290,95" stroke="#0252A2"/><path id="link-18" d="M290,95L270,115" stroke="#0252A2"/><path id="link-19" d="M270,115L240,145" stroke="#0252A2"/><path id="link-21" d="M240,145L190,195" stroke="#0252A2"/><path id="link-22" d="M240,55L240,75" stroke="#029A55"/><path id="link-23" d="M240,75L240,95" stroke="#029A55"/><path id="link-24" d="M240,95L240,115" stroke="#029A55"/><path id="link-25" d="M240,115L240,160" stroke="#029A55"/><path id="link-26" d="M240,160L240,193" stroke="#029A55"/><path id="link-27" d="M240,193L240,213" stroke="#029A55"/><path id="link-28" d="M240,213L240,246" stroke="#029A55"/></g><g id="scheme-layer-transfers"><path id="transfer-0" d="M197,195L197,210A7,7 0 0 1 183 210L183,195A7,7 0 0 1 197 195"/><path id="transfer-1" d="M247,145L247,160A7,7 0 0 1 233 160L233,145A7,7 0 0 1 247 145"/><path id="transfer-2" d="M247,246L247,260A7,7 0 0 1 233 260L233,246A7,7 0 0 1 247 246"/></g><g id="scheme-layer-stations"><circle id="station-1" cx="100" cy="300" r="5" fill="#EF1E25"/><circle id="station-2" cx="120" cy="280" r="5" fill="#EF1E25"/><circle id="station-3" cx="140" cy="260" r="5" fill="#EF1E25"/><circle id="station-4" class="transfer-station" cx="190" cy="210" r="5" fill="#EF1E25"/><circle id="station-5" cx="215" cy="235" r="5" fill="#EF1E25"/><circle id="station-6" class="transfer-station" cx="240" cy="260" r="5" fill="#EF1E25"/><circle id="station-7" cx="270" cy="290" r="5" fill="#EF1E25"/><circle id="station-8" cx="290" cy="310" r="5" fill="#EF1E25"/><circle id="station-9" cx="310" cy="330" r="5" fill="#EF1E25"/><circle id="station-10" cx="330" cy="350" r="5" fill="#EF1E25"/><circle id="station-11" cx="350" cy="370" r="5" fill="#EF1E25"/><circle id="station-12" cx="370" cy="390" r="5" fill="#EF1E25"/><circle id="station-13" cx="390" cy="410" r="5" fill="#EF1E25"/><circle id="station-14" cx="370" cy="15" r="5" fill="#0252A2"/><circle id="station-15" cx="350" cy="35" r="5" fill="#0252A2"/><circle id="station-16" cx="330" cy="55" r="5" fill="#0252A2"/><circle id="station-17" cx="310" cy="75" r="5" fill="#0252A2"/><circle id="station-18" cx="290" cy="95" r="5" fill="#0252A2"/><circle id="station-19" cx="270" cy="115" r="5" fill="#0252A2"/><circle id="station-20" class="transfer-station" cx="240" cy="145" r="5" fill="#0252A2"/><circle id="station-21" class="transfer-station" cx="190" cy="195" r="5" fill="#0252A2"/><circle id="station-29" cx="240" cy="55" r="5" fill="#029A55"/><circle id="station-22" cx="240" cy="75" r="5" fill="#029A55"/><circle id="station-23" cx="240" cy="95" r="5" fill="#029A55"/><circle id="station-24" cx="240" cy="115" r="5" fill="#029A55"/><circle id="station-25" class="transfer-station" cx="240" cy="160" r="5" fill="#029A55"/><circle id="station-26" cx="240" cy="193" r="5" fill="#029A55"/><circle id="station-27" cx="240" cy="213" r="5" fill="#029A55"/><circle id="station-28" class="transfer-station" cx="240" cy="246" r="5" fill="#029A55"/></g><g id="scheme-layer-labels"><g id="label-1"><rect x="0" y="290" width="92" height="16" rx="3" ry="3"/><text x="91" y="303" text-anchor="end">Холодная Гора</text></g><g id="label-2"><rect x="20" y="270" width="92" height="16" rx="3" ry="3"/><text x="111" y="283" text-anchor="end">Южный вокзал</text></g><g id="label-3"><rect x="8" y="250" width="124" height="16" rx="3" ry="3"/><text x="131" y="263" text-anchor="end">Центральный рынок</text></g><g id="label-4"><rect x="117" y="200" width="65" height="16" rx="3" ry="3"/><text x="181" y="213" text-anchor="end">Советская</text></g><g id="label-5"><rect x="91" y="225" width="116" height="16" rx="3" ry="3"/><text x="206" y="238" text-anchor="end">Проспект Гагарина</text></g><g id="label-6"><rect x="248" y="250" width="73" height="16" rx="3" ry="3"/><text x="249" y="263" text-anchor="start">Спортивная</text></g><g id="label-7"><rect x="278" y="280" width="150" height="16" rx="3" ry="3"/><text x="279" y="293" text-anchor="start">улица Малышева</text></g><g id="label-8"><rect x="298" y="300" width="132" height="16" rx="3" ry="3"/><text x="299" y="313" text-anchor="start">Московский проспект</text></g><g id="label-9"><rect x="318" y="320" width="150" height="16" rx="3" ry="3"/><text x="319" y="333" text-anchor="start">проспект Маршала Жукова</text></g><g id="label-10"><rect x="338" y="340" width="106" height="16" rx="3" ry="3"/><text x="339" y="353" text-anchor="start">Советской Армии</text></g><g id="label-11"><rect x="358" y="360" width="154" height="16" rx="3" ry="3"/><text x="359" y="373" text-anchor="start">имени А.С. Масельского</text></g><g id="label-12"><rect x="378" y="380" width="112" height="16" rx="3" ry="3"/><text x="379" y="393" text-anchor="start">Тракторный завод</text></g><g id="label-13"><rect x="398" y="400" width="87" height="16" rx="3" ry="3"/><text x="399" y="413" text-anchor="start">Пролетарская</text></g><g id="label-14"><rect x="378" y="5" width="83" height="16" rx="3" ry="3"/><text x="379" y="18" text-anchor="start">Героев Труда</text></g><g id="label-15"><rect x="358" y="25" width="87" height="16" rx="3" ry="3"/><text x="359" y="38" text-anchor="start">Студенческая</text></g><g id="label-16"><rect x="338" y="45" width="124" height="16" rx="3" ry="3"/><text x="339" y="58" text-anchor="start">Академика Павлова</text></g><g id="label-17"><rect x="318" y="65" width="147" height="16" rx="3" ry="3"/><text x="319" y="78" text-anchor="start">Академика Барабашова</text></g><g id="label-18"><rect x="298" y="85" width="58" height="16" rx="3" ry="3"/><text x="299" y="98" text-anchor="start">Киевская</text></g><g id="label-19"><rect x="278" y="105" width="75" height="16" rx="3" ry="3"/><text x="279" y="118" text-anchor="start">Пушкинская</text></g><g id="label-20"><rect x="248" y="135" width="78" height="16" rx="3" ry="3"/><text x="249" y="148" text-anchor="start">Университет</text></g><g id="label-21"><rect x="56" y="185" width="126" height="16" rx="3" ry="3"/><text x="181" y="198" text-anchor="end">Исторический музей</text></g><g id="label-29"><rect x="145" y="45" width="87" height="16" rx="3" ry="3"/><text x="231" y="58" text-anchor="end">Алексеевская</text></g><g id="label-22"><rect x="164" y="65" width="68" height="16" rx="3" ry="3"/><text x="231" y="78" text-anchor="end">23 августа</text></g><g id="label-23"><rect x="120" y="85" width="112" height="16" rx="3" ry="3"/><text x="231" y="98" text-anchor="end">Ботанический сад</text></g><g id="label-24"><rect x="179" y="105" width="53" height="16" rx="3" ry="3"/><text x="231" y="118" text-anchor="end">Научная</text></g><g id="label-25"><rect x="248" y="150" width="53" height="16" rx="3" ry="3"/><text x="249" y="163" text-anchor="start">Госпром</text></g><g id="label-26"><rect x="248" y="183" width="138" height="16" rx="3" ry="3"/><text x="249" y="196" text-anchor="start">Архитектора Бекетова</text></g><g id="label-27"><rect x="248" y="203" width="127" height="16" rx="3" ry="3"/><text x="249" y="216" text-anchor="start">Площадь Восстания</text></g><g id="label-28"><rect x="248" y="236" width="208" height="16" rx="3" ry="3"/><text x="249" y="249" text-anchor="start">Метростроителей имени Г.И. Ващенко</text></g></g></g><g id="highlight-layer"><g id="highlight-layer-links"/><g id="highlight-layer-transfers"/><g id="highlight-layer-stations"/><g id="highlight-layer-labels"/></g></g></svg>